<svg width="80" height="80" viewBox="0 0 80 80" fill="none" xmlns="http://www.w3.org/2000/svg">
<path d="M66.0527 44.9213V37.5132C66.0527 23.0879 54.3617 11.397 39.9344 11.397C25.5113 11.397 13.8203 23.0879 13.8203 37.5132V44.9213C13.8203 59.3448 25.5113 71.0354 39.9344 71.0354C54.3617 71.0354 66.0527 59.3448 66.0527 44.9213ZM39.9344 66.2876C28.1527 66.2876 18.5703 56.7031 18.5703 44.9213V37.5132C18.5703 36.697 18.6241 35.8907 18.7148 35.0992C31.1995 34.1503 39.8105 31.6493 45.5939 29.0388C49.2109 31.3476 54.2338 33.7824 61.2242 35.9012C61.2658 36.4343 61.3028 36.9678 61.3028 37.5134V44.9215C61.3027 56.7031 51.7203 66.2876 39.9344 66.2876Z" fill="#FD7D35"/>
<path d="M75.9984 28.4498C71.8191 12.315 57.1891 0.359688 39.7603 0.355469C22.2737 0.359688 7.60656 12.3977 3.485 28.6173C1.43859 29.4956 0 31.5275 0 33.8963V48.2577C0 51.4283 2.57141 54.0016 5.74203 54.0016C8.91281 54.0016 11.4883 51.4283 11.4883 48.2577V33.8963C11.4883 31.6617 10.1942 29.748 8.32984 28.797C9.88422 23.4044 12.7655 18.5697 16.6348 14.6983C22.567 8.76609 30.7358 5.10141 39.7602 5.10141C48.7886 5.10141 56.9573 8.76625 62.8895 14.6983C66.8127 18.6234 69.7145 23.5408 71.2483 29.0245C69.6156 30.0352 68.5117 31.8314 68.5117 33.8963V48.2577C68.5117 50.5334 69.8469 52.4845 71.7691 53.4127C71.0044 56.2939 69.9048 59.0267 68.5984 61.4305C67.3169 63.7889 65.8412 65.8248 64.3158 67.3833C63.1748 66.5236 61.7692 65.9964 60.2314 65.9964C56.4653 65.9964 53.4103 69.0514 53.4103 72.8195C53.4103 76.5875 56.4653 79.6447 60.2314 79.6447C64.0014 79.6447 67.0564 76.5875 67.0564 72.8195C67.0564 71.9803 66.8869 71.1845 66.6058 70.4403L66.957 70.1138C70.7395 66.2506 73.898 60.393 75.5391 53.8469C78.0898 53.2619 79.9995 50.9861 79.9995 48.2578V33.8964C80 31.3373 78.3133 29.1919 75.9984 28.4498Z" fill="#FD7D35"/>
<path d="M29.6445 39.1008C27.842 39.1008 26.3828 40.5621 26.3828 42.3668C26.3828 44.1691 27.842 45.6285 29.6445 45.6285C31.447 45.6285 32.9105 44.1691 32.9105 42.3668C32.9105 40.5622 31.447 39.1008 29.6445 39.1008Z" fill="#FD7D35"/>
<path d="M49.8799 39.1008C48.0777 39.1008 46.6143 40.5621 46.6143 42.3668C46.6143 44.1691 48.0777 45.6285 49.8799 45.6285C51.6824 45.6285 53.1418 44.1691 53.1418 42.3668C53.1418 40.5622 51.6824 39.1008 49.8799 39.1008Z" fill="#FD7D35"/>
</svg>
