<svg width="80" height="80" viewBox="0 0 80 80" fill="none" xmlns="http://www.w3.org/2000/svg">
<path d="M40 0C17.9077 0 0 17.9102 0 40C0 62.0898 17.9077 80 40 80C62.0898 80 80 62.0898 80 40C80 17.9102 62.0898 0 40 0ZM42.9467 56.5723C42.0141 56.9873 40.1367 57.71 40.1367 57.71C40.0928 57.7295 40.0464 57.7394 40 57.7394C39.9536 57.7394 39.9072 57.7295 39.8633 57.71C39.8633 57.71 37.9858 56.9873 37.0533 56.5723C22.3194 50.0537 19.8536 40.0684 19.8536 34.8341C19.8536 29.2725 24.3628 24.7608 29.9269 24.7608C35.4909 24.7608 40 29.2725 40 34.8341C40 29.2725 44.5092 24.7608 50.0708 24.7608C55.6347 24.7608 60.1441 29.2725 60.1441 34.8341C60.1441 40.0684 57.6806 50.0537 42.9467 56.5723Z" fill="#FD7D35"/>
</svg>
