<svg width="80" height="80" viewBox="0 0 80 80" fill="none" xmlns="http://www.w3.org/2000/svg">
<g clip-path="url(#clip0_1815_36839)">
<path d="M24.3453 0V27.1702H29.5667V5.22141H66.378L54.6796 13.1364C53.3563 14.0312 52.5647 15.5253 52.5647 17.1213V61.8463H29.5667V44.0748H24.3453V67.0677H52.5647V78.1505C52.5647 78.8352 52.9433 79.4636 53.5475 79.7834C54.1517 80.1047 54.8847 80.0664 55.4521 79.6828L74.0955 67.0678V0H24.3453Z" fill="#FD7D35"/>
<path d="M35.7276 45.375C35.7276 45.6631 35.8945 45.9256 36.1573 46.0469C36.4173 46.168 36.7258 46.1272 36.9451 45.9398L49.1395 35.6219L36.9451 25.304C36.7258 25.1165 36.4173 25.0759 36.1573 25.1969C35.8947 25.318 35.7276 25.5806 35.7276 25.8687V31.0862H5.90466V40.1587H35.7278V45.375H35.7276Z" fill="#FD7D35"/>
</g>
<defs>
<clipPath id="clip0_1815_36839">
<rect width="80" height="80" fill="white"/>
</clipPath>
</defs>
</svg>
