<svg width="80" height="80" viewBox="0 0 80 80" fill="none" xmlns="http://www.w3.org/2000/svg">
<path d="M40 0C17.9083 0 0 17.9087 0 39.9994C0 62.0909 17.9083 80 40 80C62.0916 80 80 62.0911 80 39.9994C80 17.9087 62.0917 0 40 0ZM39.9994 62.7987C29.1795 62.7941 21.4495 61.3241 21.63 59.9772C22.613 52.6166 28.5486 51.9087 32.3178 48.8928C34.0103 47.5387 34.833 47.8772 34.833 45.6202C34.833 44.8306 34.833 43.363 34.833 42.0091C33.8169 40.8811 33.4475 41.022 32.5883 36.593C30.852 36.593 30.9639 34.3358 30.1448 32.3344C29.5058 30.7744 29.9905 30.1009 30.5266 29.8086C30.2372 28.2664 30.42 23.0883 32.6409 20.3931L32.2906 17.948C32.2906 17.948 32.9891 18.1231 34.7353 17.7727C36.4823 17.4247 40.6734 16.3773 43.1187 18.4722C48.987 19.335 50.5453 24.1547 49.4006 29.7731C49.9628 30.043 50.5222 30.7047 49.8539 32.3344C49.0355 34.3358 49.1473 36.593 47.4111 36.593C46.5523 41.022 46.1825 40.8811 45.1664 42.0091C45.1664 43.3631 45.1664 44.8306 45.1664 45.6202C45.1664 47.8772 45.9884 47.5387 47.6809 48.8928C51.4506 51.9086 57.3858 52.6164 58.3694 59.9772C58.5492 61.3241 50.8197 62.7941 39.9994 62.7987Z" fill="#FD7D35"/>
</svg>
