<svg width="80" height="80" viewBox="0 0 80 80" fill="none" xmlns="http://www.w3.org/2000/svg">
<path d="M78.0418 34.8804C77.0725 32.7003 74.9583 31.2892 72.6536 31.2892L72.3802 31.294L70.8225 31.377C67.3239 26.5137 62.4193 22.7637 56.5135 20.4615C52.6511 18.9528 48.3446 18.0543 43.7157 17.7931C42.7538 17.7393 41.7722 17.715 40.7933 17.715C40.0902 17.715 39.3724 17.7271 38.6424 17.754C36.4866 17.837 34.3577 18.1154 32.3118 18.5792C31.9846 18.6525 31.655 18.7329 31.3254 18.8184C27.2263 16.4161 23.2224 15.874 20.4465 15.874C20.2169 15.874 19.9924 15.8765 19.7775 15.8839C19.2086 15.8986 18.7961 15.9229 18.4836 15.9571C17.8513 16.0231 17.3019 16.1915 16.8332 16.4357C15.8663 16.8484 15.0363 17.5442 14.4552 18.4523C13.6007 19.8098 13.4005 21.4309 13.8863 22.925L15.7125 28.5157C15.3488 28.9576 15.0069 29.4045 14.6871 29.8537C13.2319 31.8971 12.2213 33.7795 11.3325 35.4396C10.1265 37.6857 9.3452 39.0798 8.48099 39.424L8.4077 39.4509L8.18802 39.5364L7.70224 39.722C5.5538 40.5276 0.52208 42.4148 1.56942 47.642L1.79895 48.8017C2.69005 53.3378 3.28333 56.1967 3.6813 57.3929L3.91083 58.0961C4.71161 60.5301 5.20974 61.7728 7.78052 63.4281C8.91083 64.1532 10.2854 64.4095 11.7405 64.6806C12.1727 64.7612 12.805 64.8784 13.0882 64.9589C13.3641 65.0956 13.6571 65.2006 13.9597 65.2714C14.9827 65.5082 15.8127 65.6303 16.4793 65.7254C16.9115 65.7889 17.4485 65.867 17.595 65.9281C17.6683 65.9793 18.22 66.4286 19.6654 69.0384L19.741 69.1678C20.6247 70.6278 21.5794 72.9959 21.8943 73.7746C22.0604 74.1873 22.2093 74.5657 22.3386 74.8904C22.6268 75.6229 22.761 75.9598 22.905 76.2528C24.1599 78.7501 26.3865 80.0001 29.5407 80.0001H33.9646C36.8065 80.0001 39.6725 77.8932 39.6725 73.1837V72.3V71.6237H47.4924V72.3V73.1837C47.4924 77.8932 50.3049 80.0001 53.093 80.0001H57.2435C60.3538 80.0001 62.5316 78.7159 63.7182 76.1842C63.8647 75.8717 63.9989 75.5128 64.2894 74.729C64.3822 74.4751 64.4896 74.1895 64.6044 73.8843C66.4404 70.249 68.2152 67.4268 70.1733 65.0098C74.2358 60.2343 76.3843 54.375 76.3843 48.0615C76.3843 46.3671 76.2085 44.6387 75.8618 42.8979C76.1304 42.5659 76.4404 42.1973 76.7993 41.7993C78.5861 39.8195 79.0622 37.1729 78.0418 34.8804ZM73.8791 39.1529C72.7047 40.4493 71.9552 41.5114 71.611 42.0265C72.17 44.0993 72.4411 46.1428 72.4411 48.0617C72.4411 53.8576 70.3708 58.7087 67.1433 62.4904C64.5604 65.6667 62.5925 69.1042 60.9885 72.3C60.5758 73.3889 60.2707 74.2482 60.1486 74.5118C59.736 75.3932 59.111 76.0596 57.2433 76.0596C55.378 76.0596 54.338 76.0596 53.0929 76.0596C51.8502 76.0596 51.4327 74.7315 51.4327 73.1837C51.4327 72.9445 51.4327 72.6442 51.4327 72.3V67.6807H35.7321V72.3C35.7321 72.6442 35.7321 72.9445 35.7321 73.1837C35.7321 74.7315 35.2877 76.0596 33.9644 76.0596C32.6363 76.0596 31.5279 76.0596 29.5405 76.0596C27.5483 76.0596 26.8843 75.3931 26.4424 74.5118C26.313 74.2481 25.9907 73.3887 25.5488 72.3C24.9116 70.7154 24.0254 68.6306 23.1122 67.1267C19.7699 61.0989 19.1132 62.4123 14.8432 61.4309V61.4261C13.8935 60.8817 10.8368 60.7059 9.91645 60.1126C8.24161 59.0359 8.31005 58.8089 7.4213 56.1551C6.95255 54.739 5.82458 48.8187 5.43395 46.8679C5.01161 44.7561 7.4188 44.0529 9.63067 43.2057L9.93349 43.0886C13.459 41.6896 14.2793 37.2193 17.8974 32.1412C18.5444 31.2329 19.3085 30.3321 20.1704 29.4629L17.6361 21.7065C17.5116 21.3281 17.5629 20.9131 17.7754 20.5762C17.9927 20.2368 18.3466 20.0123 18.7471 19.9659C18.7471 19.9659 18.1954 19.8731 19.8994 19.8243C20.0752 19.8195 20.2583 19.8145 20.4463 19.8145C23.0708 19.8145 26.9111 20.4029 30.6929 23.1056C31.4961 22.8492 32.3261 22.6173 33.188 22.422C34.9458 22.0215 36.8135 21.7676 38.791 21.692C39.4697 21.6676 40.1361 21.6554 40.793 21.6554C41.7135 21.6554 42.6143 21.6798 43.4908 21.7287C47.9074 21.9778 51.7574 22.8371 55.0802 24.1359C61.5255 26.6481 65.9908 30.8181 68.7789 35.4275C70.8468 35.3225 71.1569 35.3078 72.5729 35.2346L72.6535 35.2321C74.1647 35.232 75.5271 37.3268 73.8791 39.1529Z" fill="#FD7D35"/>
<path d="M21.4936 40.896C19.77 40.896 18.3711 42.2926 18.3711 44.0185C18.3711 45.7421 19.77 47.1387 21.4936 47.1387C23.2172 47.1387 24.6138 45.7421 24.6138 44.0185C24.6138 42.2926 23.2173 40.896 21.4936 40.896Z" fill="#FD7D35"/>
<path d="M38.8498 13.2373C39.9143 13.4669 40.964 12.793 41.1961 11.7286C42.197 7.10219 46.2962 3.94297 50.8372 3.94297C51.5329 3.94297 52.2361 4.01625 52.9417 4.17L52.9465 4.1725C57.5729 5.17109 60.7298 9.27266 60.7298 13.8136C60.7298 14.507 60.6565 15.2125 60.5028 15.9255C60.2733 16.99 60.9472 18.0373 62.0115 18.2692C63.0761 18.4987 64.1258 17.8248 64.3553 16.7628C64.5701 15.7741 64.6726 14.7853 64.6726 13.8136C64.6726 7.44641 60.2537 1.72859 53.7815 0.3175L53.7864 0.322344C52.7975 0.1025 51.8087 0 50.837 0C44.4673 0 38.752 4.41891 37.3434 10.8936C37.1115 11.9531 37.7878 13.003 38.8498 13.2373Z" fill="#FD7D35"/>
</svg>
