<svg width="80" height="80" viewBox="0 0 80 80" fill="none" xmlns="http://www.w3.org/2000/svg">
<g clip-path="url(#clip0_1815_34416)">
<path d="M8.50391 41.606C12.0656 41.606 15.1119 39.4147 16.378 36.3069C17.6441 39.4147 20.6902 41.606 24.252 41.606C27.8137 41.606 30.86 39.4147 32.1261 36.3069C33.392 39.4147 36.4383 41.606 40.0002 41.606C43.5619 41.606 46.6081 39.4147 47.8742 36.3069C49.1403 39.4147 52.1864 41.606 55.7483 41.606C59.31 41.606 62.3563 39.4147 63.6223 36.3069C64.8883 39.4147 67.9345 41.606 71.4964 41.606C76.1925 41.606 80.0003 37.7994 80.0003 33.1021H0C0 37.7994 3.80781 41.606 8.50391 41.606Z" fill="#FD7D35"/>
<path d="M68.4817 7.01334C67.0508 4.05318 64.0527 2.17334 60.7652 2.17334H19.2347C15.9473 2.17334 12.9491 4.05334 11.5181 7.01334L0 30.8347H80L68.4817 7.01334Z" fill="#FD7D35"/>
<path d="M68.9235 67.1351C68.9222 68.5303 68.3661 69.7679 67.4521 70.6857C66.5355 71.5998 65.2977 72.156 63.9025 72.1573H41.8897V47.2754H38.1102V72.1573H16.0974C14.7022 72.156 13.4646 71.6 12.5479 70.6857C11.6338 69.7679 11.0777 68.5303 11.0766 67.1351V44.1257H5.40723V67.1351C5.40957 73.0406 10.1919 77.824 16.0974 77.8265H63.9025C69.808 77.824 74.5903 73.0406 74.5928 67.1351V44.1257H68.9235V67.1351Z" fill="#FD7D35"/>
<path d="M33.4485 54.8345H29.6689V63.6534H33.4485V54.8345Z" fill="#FD7D35"/>
<path d="M50.3313 54.8345H46.5518V63.6534H50.3313V54.8345Z" fill="#FD7D35"/>
</g>
<defs>
<clipPath id="clip0_1815_34416">
<rect width="80" height="80" fill="white"/>
</clipPath>
</defs>
</svg>
