<svg width="80" height="80" viewBox="0 0 80 80" fill="none" xmlns="http://www.w3.org/2000/svg">
<path d="M76.3695 19.6631L70.1056 14.5002L69.8717 9.67235H53.8366C54.2634 10.8467 54.5527 12.085 54.6672 13.3764H66.3438L66.4859 16.3174L70.1622 19.3474H52.2642V14.6822C52.2631 7.9072 46.7733 2.4186 40.0006 2.41626C33.2255 2.41751 27.7358 7.9072 27.7358 14.6822C27.7358 14.9066 27.7358 16.8369 27.7358 19.3474H9.75813L13.3259 16.3317L13.5875 13.3764H25.3327C25.4459 12.085 25.7355 10.8467 26.1622 9.67235H10.1969L9.77125 14.4869L3.62922 19.6775L3.57984 20.4661L0 77.5838H80L76.3695 19.6631ZM30.5812 14.6822C30.5825 12.0753 31.6339 9.73267 33.34 8.02298C35.0486 6.31563 37.395 5.26298 40.0005 5.26298C42.6048 5.26298 44.9512 6.31563 46.6586 8.02298C48.3659 9.73267 49.4173 12.0755 49.4173 14.6822V19.3474H30.5812C30.5812 16.837 30.5812 14.9066 30.5812 14.6822ZM3.94266 73.8797L7.20672 21.8167H27.7358C27.7358 25.9669 27.7358 30.6331 27.7358 32.0233C26.5036 32.5695 25.6414 33.7969 25.6414 35.2353C25.6414 37.1766 27.2161 38.75 29.1586 38.75C31.0997 38.75 32.6745 37.1766 32.6745 35.2353C32.6745 33.7981 31.8125 32.5695 30.5814 32.0233C30.5814 30.6342 30.5814 25.968 30.5814 21.8167H49.4177V32.0245C48.1878 32.5708 47.3269 33.7983 47.3269 35.2355C47.3269 37.1767 48.8991 38.7502 50.8403 38.7502C52.7841 38.7502 54.3575 37.1767 54.3575 35.2355C54.3575 33.7983 53.4967 32.5697 52.2644 32.0234V21.8169H72.7934L76.0573 73.8799H3.94266V73.8797Z" fill="#FD7D35"/>
<path d="M44.7958 9.67236H35.2053L35.0859 9.77002C34.0887 10.7696 33.4378 12.0188 33.1797 13.3764H46.8203C46.5634 12.0188 45.9111 10.7685 44.9116 9.76768L44.7958 9.67236Z" fill="#FD7D35"/>
</svg>
