<svg width="80" height="80" viewBox="0 0 80 80" fill="none" xmlns="http://www.w3.org/2000/svg">
<path d="M19.9609 62.1875H60.0391V44.082C60.0391 33.0175 51.0669 24.043 40 24.043C28.9306 24.043 19.9609 33.0177 19.9609 44.082V62.1875ZM31.543 29.4727C32.4952 28.9209 33.5059 28.457 34.5655 28.0956C35.2442 27.8661 35.9816 28.2275 36.2134 28.9062C36.4453 29.585 36.0816 30.3223 35.4005 30.5542C34.5092 30.8594 33.6548 31.25 32.8491 31.7188C32.2266 32.0802 31.433 31.8702 31.0742 31.2475C30.713 30.625 30.9228 29.8341 31.543 29.4727ZM23.1153 44.082C23.1153 40.6592 24.1431 37.4609 25.9034 34.7948C26.2989 34.1991 27.1047 34.0331 27.7052 34.4286C28.3033 34.8241 28.4669 35.6298 28.0714 36.228C26.5797 38.4862 25.713 41.1816 25.713 44.082V57.7344C25.713 58.4522 25.1319 59.0333 24.4141 59.0333C23.6962 59.0333 23.1152 58.4522 23.1152 57.7344V44.082H23.1153Z" fill="#FD7D35"/>
<path d="M63.2569 66.3525H16.7432C15.9229 66.3525 15.2588 67.0166 15.2588 67.8369V75.2588H64.7413V67.8369C64.7413 67.0166 64.0772 66.3525 63.2569 66.3525Z" fill="#FD7D35"/>
<path d="M41.316 13.7329L41.8213 4.74121H38.1812L38.6866 13.7329H41.316Z" fill="#FD7D35"/>
<path d="M25.6349 17.2291L21.5772 9.19189L18.4229 11.0108L23.3569 18.545L25.6349 17.2291Z" fill="#FD7D35"/>
<path d="M4.44824 26.3185L12.4878 30.376L13.8037 28.1007L6.26949 23.1689L4.44824 26.3185Z" fill="#FD7D35"/>
<path d="M0 46.5625L8.98922 46.0571V43.4278L0 42.9248V46.5625Z" fill="#FD7D35"/>
<path d="M71.0108 43.4278L71.0083 46.0571L80 46.5625V42.9248L71.0108 43.4278Z" fill="#FD7D35"/>
<path d="M73.7305 23.1689L66.1963 28.1007L67.5122 30.376L75.5518 26.3185L73.7305 23.1689Z" fill="#FD7D35"/>
<path d="M61.5747 11.0108L58.4254 9.19189L54.3654 17.2314L56.6432 18.545L61.5747 11.0108Z" fill="#FD7D35"/>
</svg>
