<svg width="80" height="80" viewBox="0 0 80 80" fill="none" xmlns="http://www.w3.org/2000/svg">
<path d="M70.7716 2.98619C70.2686 2.65666 69.6339 2.60041 69.082 2.83728L29.4752 19.849L29.4727 50.2056L69.082 67.2198C69.6338 67.4567 70.2686 67.4004 70.7716 67.0684C71.2745 66.7364 71.5772 66.1773 71.5772 65.5742V4.48275C71.5772 3.87978 71.2794 3.31572 70.7716 2.98619Z" fill="#FD7D35"/>
<path d="M26.1036 19.8491H7.16313C3.20797 19.8491 0.0025 23.0547 0.0025 27.0097L0 43.0426C0 47.0001 3.20797 50.2057 7.16313 50.2057H26.1036V19.8491Z" fill="#FD7D35"/>
<path d="M74.3164 29.1311V42.6077C76.7578 42.6077 80 39.59 80 35.8717C80 32.1486 76.7578 29.1311 74.3164 29.1311Z" fill="#FD7D35"/>
<path d="M23.1202 53.5552H10.3174L15.5713 74.7563C15.8594 76.2407 17.1582 77.3075 18.6671 77.3075H25.9449C26.9385 77.3075 27.876 76.8388 28.4718 76.038C29.0699 75.2421 29.253 74.2094 28.9699 73.2547L23.1202 53.5552Z" fill="#FD7D35"/>
</svg>
